<?xml version="1.0" standalone="no"?>
<!DOCTYPE svg PUBLIC "-//W3C//DTD SVG 20010904//EN"
 "http://www.w3.org/TR/2001/REC-SVG-20010904/DTD/svg10.dtd">
<svg version="1.0" xmlns="http://www.w3.org/2000/svg"
 width="880.000000pt" height="819.000000pt" viewBox="0 0 880.000000 819.000000"
 preserveAspectRatio="xMidYMid meet">
<metadata>
Created by potrace 1.15, written by Peter Selinger 2001-2017
</metadata>
<g transform="translate(0.000000,819.000000) scale(0.100000,-0.100000)"
fill="#fefbd8" stroke="none">
<path d="M8025 7672 c-537 -276 -997 -590 -1470 -1001 -162 -141 -594 -575
-737 -741 -663 -767 -1128 -1484 -1908 -2935 -100 -187 -186 -344 -190 -349
-5 -5 -72 119 -151 275 -286 572 -532 996 -895 1543 l-37 56 -276 -141 c-329
-169 -566 -298 -1081 -589 -308 -174 -778 -437 -860 -481 -11 -5 15 -21 90
-55 178 -82 593 -290 738 -371 543 -303 1054 -664 1526 -1076 250 -218 713
-682 966 -967 56 -63 105 -116 109 -117 3 -2 24 25 46 60 820 1291 1770 2377
2820 3223 470 379 1012 735 1526 1003 l157 82 -24 92 c-165 654 -206 1337
-139 2317 17 246 18 280 8 280 -5 0 -102 -49 -218 -108z"/>
</g>
</svg>
