<?xml version="1.0" standalone="no"?>
<!DOCTYPE svg PUBLIC "-//W3C//DTD SVG 20010904//EN"
 "http://www.w3.org/TR/2001/REC-SVG-20010904/DTD/svg10.dtd">
<svg version="1.0" xmlns="http://www.w3.org/2000/svg"
 width="756.000000pt" height="980.000000pt" viewBox="0 0 756.000000 980.000000"
 preserveAspectRatio="xMidYMid meet">
<metadata>
Created by potrace 1.15, written by Peter Selinger 2001-2017
</metadata>
<g transform="translate(0.000000,980.000000) scale(0.100000,-0.100000)"
fill="#4040a1" stroke="none">
<path d="M3942 9785 c-133 -24 -315 -126 -414 -233 -88 -94 -181 -266 -213
-393 -9 -36 -20 -70 -24 -77 -5 -8 -41 0 -126 30 -114 39 -127 41 -266 46
-176 6 -275 -11 -396 -68 -100 -47 -160 -87 -237 -159 -122 -116 -208 -257
-226 -371 -11 -72 -27 -1309 -38 -2990 l-7 -1085 -150 195 c-263 342 -378 471
-491 545 -171 114 -435 175 -623 146 -365 -57 -645 -335 -710 -705 -24 -134
-8 -313 40 -441 67 -183 683 -1331 1051 -1963 455 -781 831 -1276 1213 -1599
408 -346 928 -553 1575 -628 390 -45 928 -45 1270 0 666 89 1142 319 1570 761
216 222 344 405 476 679 86 178 136 314 208 559 96 327 104 403 116 1196 13
823 12 3852 0 4118 -12 254 -30 361 -75 465 -53 124 -94 186 -180 272 -95 95
-162 136 -293 181 -196 67 -382 67 -590 -1 -58 -19 -109 -32 -114 -29 -4 3 -8
32 -8 64 0 66 -23 252 -46 380 -69 372 -276 606 -601 681 -184 43 -471 11
-630 -70 l-61 -30 -54 97 c-42 78 -73 117 -153 197 -145 145 -254 203 -432
230 -118 18 -262 18 -361 0z m370 -442 c77 -36 153 -103 198 -173 30 -46 31
-56 40 -197 11 -167 30 -2040 30 -2939 l0 -592 45 -36 c62 -51 109 -69 170
-64 58 5 107 27 152 68 l32 29 11 1448 c6 796 15 1530 20 1631 11 210 20 241
95 321 77 82 201 119 366 108 163 -10 231 -61 319 -236 l50 -101 0 -607 c0
-846 19 -2515 29 -2658 10 -134 21 -156 91 -192 84 -44 210 -18 271 55 25 29
26 38 33 189 9 219 26 1329 26 1781 l0 372 44 93 c52 109 108 176 174 209 42
21 60 23 182 22 117 0 143 -3 194 -23 143 -57 211 -194 237 -476 15 -157 5
-4472 -10 -4685 -31 -437 -208 -965 -439 -1311 -132 -196 -376 -442 -567 -570
-221 -149 -532 -269 -850 -328 -613 -115 -1457 -57 -2002 138 -608 217 -1041
647 -1625 1616 -334 554 -1020 1798 -1127 2041 -67 154 -78 304 -31 427 30 81
111 166 192 203 53 23 80 29 164 32 152 6 251 -27 346 -116 55 -51 231 -269
463 -572 213 -279 417 -530 464 -573 41 -37 62 -43 141 -38 45 3 110 32 134
59 13 15 21 46 27 99 10 101 18 813 30 2823 5 894 14 1676 19 1738 6 83 15
125 31 160 50 102 173 189 304 213 162 30 326 -42 443 -193 l41 -54 11 -1510
11 -1509 47 -44 c115 -107 224 -107 329 1 l41 43 11 1819 11 1819 27 46 c34
59 107 137 157 169 76 47 133 62 236 59 83 -2 104 -7 162 -34z"/>
</g>
</svg>
